HIERARCHY
ROOT Hips
{
	OFFSET 0.000000 0.000000 0.000000
	CHANNELS 6 Xposition Yposition Zposition Zrotation Yrotation Xrotation 
	JOINT LHipJoint
	{
		OFFSET 0.000000 0.000000 0.000000
		CHANNELS 3 Zrotation Yrotation Xrotation
		JOINT LeftUpLeg
		{
			OFFSET 1.363060 -1.794630 0.839290
			CHANNELS 3 Zrotation Yrotation Xrotation
			JOINT LeftLeg
			{
				OFFSET 2.448110 -6.726130 0.000000
				CHANNELS 3 Zrotation Yrotation Xrotation
				JOINT LeftFoot
				{
					OFFSET 2.562200 -7.039590 0.000000
					CHANNELS 3 Zrotation Yrotation Xrotation
					JOINT LeftToeBase
					{
						OFFSET 0.157640 -0.433110 2.322550
						CHANNELS 3 Zrotation Yrotation Xrotation
						End Site
						{
							OFFSET 0.000000 0.000000 0.000000
						}
					}
				}
			}
		}
	}
	JOINT RHipJoint
	{
		OFFSET 0.000000 0.000000 0.000000
		CHANNELS 3 Zrotation Yrotation Xrotation
		JOINT RightUpLeg
		{
			OFFSET -1.305520 -1.794630 0.839290
			CHANNELS 3 Zrotation Yrotation Xrotation
			JOINT RightLeg
			{
				OFFSET -2.542530 -6.985550 0.000000
				CHANNELS 3 Zrotation Yrotation Xrotation
				JOINT RightFoot
				{
					OFFSET -2.568260 -7.056230 0.000000
					CHANNELS 3 Zrotation Yrotation Xrotation
					JOINT RightToeBase
					{
						OFFSET -0.164730 -0.452590 2.363150
						CHANNELS 3 Zrotation Yrotation Xrotation
						End Site
						{
							OFFSET 0.000000 0.000000 0.000000
						}
					}
				}
			}
		}
	}
}
MOTION
Frames: 25
Frame Time: 0.008333
-7.078477 16.387688 -2.467601 7.101074 76.143607 21.965726 -9.751312 -1.107247 0.689408 -4.687396 4.610469 -46.039199 -1.581666 1.310604 23.461816 0.925427 5.137052 11.622876 1.876600 -0.000000 -39.773100 10.572140 -2.344920 -1.220282 1.241305 2.623315 -4.561753 0.167543 -3.165473 43.091787 0.501980 7.913627 3.323122 1.323300 0.000000 -85.981100
-6.899271 16.387703 -2.459377 8.534056 75.626888 23.287498 -9.693276 -1.071023 0.480400 -5.358392 4.873977 -46.088335 -1.579961 1.422273 25.331157 1.005024 5.720253 10.503106 1.968600 0.000001 -38.836900 10.827896 -2.295004 -1.281401 0.589898 2.106518 -6.182715 -0.224182 -3.355473 46.293347 0.208331 5.989582 5.163867 1.244200 -0.000000 -84.333401
-6.725790 16.392880 -2.453484 9.578850 75.044165 24.209299 -9.630226 -1.030777 0.269820 -5.952108 5.147578 -45.958723 -1.591228 1.509723 26.950337 1.079968 6.266286 9.111025 2.002701 0.000000 -38.466000 11.070803 -2.196955 -1.353692 0.028411 1.616970 -7.805602 -0.584734 -3.516874 49.399179 -0.136883 3.653847 6.725305 0.937100 -0.000001 -81.444799
-6.557200 16.402902 -2.450344 10.228147 74.387892 24.723934 -9.569510 -0.987355 0.061019 -6.447552 5.437254 -45.655454 -1.610484 1.575498 28.322791 1.155148 6.789418 7.563063 1.986600 -0.000001 -38.607900 11.292260 -2.057217 -1.433517 -0.429098 1.176533 -9.410026 -0.904909 -3.654506 52.373048 -0.521945 0.971895 7.885015 0.402700 0.000000 -77.367200
-6.392624 16.417436 -2.449964 10.499334 73.656234 24.852810 -9.517675 -0.942197 -0.142224 -6.830243 5.749037 -45.194032 -1.632483 1.622246 29.455788 1.234254 7.306375 5.979873 1.933900 0.000000 -39.153100 11.485730 -1.886400 -1.515501 -0.769816 0.801967 -10.985792 -1.180441 -3.773686 55.177064 -0.930816 -1.943226 8.550788 -0.307200 -0.000000 -72.348200
-6.231117 16.436138 -2.451993 10.438719 72.853931 24.650195 -9.479317 -0.896509 -0.336339 -7.096928 6.087193 -44.599485 -1.652400 1.652780 30.360431 1.319241 7.833626 4.474194 1.861400 0.000000 -39.963600 11.647681 -1.697108 -1.593180 -0.985469 0.504060 -12.532662 -1.411475 -3.879106 57.774935 -1.344200 -4.936842 8.675919 -1.096100 0.000000 -66.737601
-6.071854 16.458775 -2.455655 10.104449 71.991421 24.185645 -9.457391 -0.850990 -0.517983 -7.252050 6.456749 -43.905138 -1.666463 1.670278 31.053268 1.409858 8.380473 3.138011 1.785900 -0.000000 -40.887100 11.776497 -1.501985 -1.659188 -1.068693 0.289360 -14.057195 -1.600996 -3.973419 60.134096 -1.741516 -7.833548 8.268749 -1.846000 -0.000000 -60.924300
-5.914169 16.485124 -2.459826 9.569963 71.085069 23.544091 -9.452707 -0.805528 -0.684725 -7.310374 6.861294 -43.147096 -1.672779 1.677770 31.553682 1.504022 8.947640 2.034217 1.722099 -0.000000 -41.776900 11.872626 -1.311611 -1.707011 -1.017441 0.157041 -15.569787 -1.752779 -4.057363 62.229448 -2.102767 -10.461333 7.388774 -2.447400 -0.000000 -55.259300
-5.757708 16.514937 -2.463170 8.911458 70.156165 22.811148 -9.464450 -0.759339 -0.835108 -7.293464 7.303585 -42.359824 -1.671710 1.677813 31.881810 1.598181 9.524830 1.191955 1.680201 0.000000 -42.516400 11.937712 -1.133687 -1.731911 -0.834674 0.098949 -17.080872 -1.869809 -4.130278 64.045101 -2.410102 -12.674031 6.131004 -2.824600 -0.000000 -50.002700
-5.602342 16.548027 -2.464245 8.203559 69.228080 22.067739 -9.490185 -0.710938 -0.969034 -7.228211 7.783707 -41.571129 -1.665874 1.672213 32.055988 1.688032 10.092647 0.607522 1.665200 0.000000 -43.032500 11.974437 -0.972371 -1.732429 -0.530498 0.098258 -18.598125 -1.953559 -4.191044 65.572446 -2.648824 -14.363804 4.607768 -2.948300 -0.000000 -45.312700
-5.448258 16.584183 -2.461734 7.511275 68.325491 21.380106 -9.526656 -0.658417 -1.087336 -7.142616 8.298861 -40.799818 -1.659496 1.661952 32.091106 1.769080 10.625256 0.250000 1.676000 -0.000000 -43.304100 11.985907 -0.829030 -1.709881 -0.120547 0.133231 -20.123597 -2.004225 -4.238732 66.807801 -2.808141 -15.465848 2.936206 -2.835800 0.000000 -41.271600
-5.295899 16.623151 -2.454543 6.891353 67.471549 20.799664 -9.569877 -0.599525 -1.192157 -7.064076 8.842193 -40.051614 -1.657525 1.647138 31.997081 1.837309 11.096244 0.070787 1.706200 0.000000 -43.355400 11.976037 -0.702621 -1.668546 0.372410 0.178487 -21.651648 -2.021380 -4.273222 67.749002 -2.881799 -15.957752 1.231204 -2.540800 -0.000000 -37.943400
-5.145737 16.664689 -2.441978 6.380894 66.684872 20.357314 -9.615825 -0.532395 -1.286205 -7.014299 9.403842 -39.325572 -1.664647 1.627569 31.781674 1.889540 11.481612 0.012807 1.745500 0.000000 -43.245499 11.948641 -0.590233 -1.614398 0.924911 0.210603 -23.173662 -2.004996 -4.294706 68.395375 -2.868931 -15.858500 -0.398947 -2.138601 0.000000 -35.402000
-4.998400 16.708494 -2.423777 6.005100 65.978895 20.066391 -9.660987 -0.455522 -1.372782 -7.008877 9.971527 -38.609569 -1.684290 1.602605 31.449688 1.923668 11.764272 0.022749 1.782499 -0.000000 -43.052400 11.907847 -0.488266 -1.554392 1.511972 0.208423 -24.675068 -1.956118 -4.304101 68.747400 -2.774728 -15.225729 -1.858827 -1.707000 0.000000 -33.740299
-4.854319 16.754212 -2.400144 5.769815 65.359648 19.922309 -9.702937 -0.368531 -1.454978 -7.053612 10.533437 -37.889273 -1.718104 1.571730 31.006152 1.938802 11.935129 0.059139 1.807999 0.000000 -42.861000 11.856939 -0.392642 -1.495140 2.114205 0.157296 -26.141490 -1.877400 -4.302109 68.807422 -2.611406 -14.155149 -3.072582 -1.309800 -0.000001 -33.053900
-4.713792 16.801449 -2.371672 5.666569 64.825693 19.906866 -9.740476 -0.272200 -1.535534 -7.145163 11.079038 -37.148550 -1.765719 1.534602 30.456894 1.935273 11.994049 0.097781 1.816500 0.000001 -42.750600 11.798311 -0.299414 -1.442710 2.718851 0.048617 -27.559389 -1.772877 -4.289457 68.582320 -2.397672 -12.773240 -3.998918 -0.984800 -0.000000 -33.370700
-4.576915 16.849736 -2.339202 5.677062 64.369425 19.993062 -9.773785 -0.168106 -1.616167 -7.273325 11.600541 -36.372279 -1.824920 1.491098 29.809163 1.914573 11.949680 0.132871 1.807700 -0.000000 -42.781600 11.733107 -0.205668 -1.401806 3.320694 -0.120984 -28.916772 -1.647014 -4.266845 68.083930 -2.156807 -11.225476 -4.642799 -0.741300 -0.000000 -34.576000
-4.443573 16.898563 -2.303689 5.773593 63.976967 20.148469 -9.804042 -0.058666 -1.697823 -7.421735 12.093521 -35.550641 -1.892030 1.441722 29.073413 1.879255 11.818235 0.175206 1.786200 -0.000000 -42.993900 11.661050 -0.109404 -1.375959 3.922480 -0.348758 -30.205163 -1.503692 -4.234921 67.330376 -1.913365 -9.660148 -5.058586 -0.567699 -0.000000 -36.376200
-4.313464 16.947398 -2.266059 5.926168 63.631474 20.339893 -9.833163 0.053664 -1.780508 -7.572732 12.557275 -34.678830 -1.962556 1.387446 28.263069 1.832501 11.620764 0.246526 1.759400 0.000000 -43.397700 11.580758 -0.010488 -1.366437 4.531933 -0.626537 -31.417383 -1.345462 -4.194237 66.342527 -1.689686 -8.212470 -5.334878 -0.444700 -0.000000 -38.379601
-4.186150 16.995656 -2.227071 6.103514 63.314967 20.537008 -9.863328 0.166578 -1.863591 -7.709558 12.994845 -33.760082 -2.031922 1.329857 27.395088 1.777941 11.381003 0.372685 1.735900 -0.000000 -43.977100 11.489935 0.089683 -1.372024 5.160062 -0.940401 -32.549240 -1.173391 -4.144905 65.141201 -1.503145 -6.989784 -5.573964 -0.355100 -0.000000 -40.183800
-4.061078 17.042829 -2.187271 6.280036 63.008681 20.718273 -9.896021 0.278159 -1.946930 -7.819811 13.411894 -32.803844 -2.096304 1.270998 26.488179 1.719311 11.123052 0.577129 1.723100 0.000001 -44.688900 11.386371 0.189162 -1.389642 5.815816 -1.272275 -33.597551 -0.987639 -4.086242 63.740273 -1.365314 -6.063706 -5.862519 -0.287801 0.000000 -41.555500
-3.937719 17.088389 -2.146887 6.436936 62.697458 20.869899 -9.932419 0.387413 -2.030104 -7.896974 13.817525 -31.824714 -2.153130 1.213011 25.563668 1.659769 10.866249 0.873851 1.725800 -0.000000 -45.470700 11.267976 0.284593 -1.413676 6.506018 -1.603286 -34.560205 -0.787212 -4.016916 62.147751 -1.282223 -5.465307 -6.272383 -0.234400 0.000001 -42.313100
-3.815548 17.131822 -2.105857 6.565583 62.369419 20.988654 -9.972667 0.494049 -2.113398 -7.941156 14.222874 -30.839615 -2.201573 1.157805 24.642013 1.601740 10.624109 1.264291 1.745500 -0.000000 -46.251599 11.133516 0.372696 -1.437617 7.232804 -1.916630 -35.436060 -0.570708 -3.934828 60.363900 -1.255465 -5.187185 -6.846799 -0.186400 0.000000 -42.382999
-3.694090 17.172713 -2.063862 6.667062 62.017289 21.080983 -10.016038 0.598534 -2.197676 -7.958892 14.640530 -29.865909 -2.242691 1.106810 23.741702 1.546485 10.401473 1.736160 1.779700 0.000000 -46.966000 10.982772 0.450509 -1.454636 7.993147 -2.199912 -36.224266 -0.336810 -3.837146 58.383110 -1.283368 -5.190815 -7.600267 -0.134299 -0.000000 -41.754000
-3.572952 17.210680 -2.020434 6.750503 61.637549 21.160189 -10.061051 0.701858 -2.284486 -7.961129 15.083230 -28.917743 -2.279124 1.060743 22.876807 1.494217 10.195740 2.264792 1.823100 -0.000000 -47.566600 10.816670 0.515942 -1.458643 8.779737 -2.446692 -36.924376 -0.084881 -3.720421 56.196087 -1.361560 -5.416089 -8.518605 -0.067900 -0.000000 -40.465001
